<?xml version="1.0" encoding="UTF-8" standalone="no"?>
<svg
   version="1.1"
   id="Logo"
   x="0px"
   y="0px"
   viewBox="0 0 390.60001 307.39999"
   xml:space="preserve"
   sodipodi:docname="Logo_Bayerischer_Rundfunk.svg"
   width="390.60001"
   height="307.39999"
   inkscape:version="1.2.2 (b0a84865, 2022-12-01)"
   xmlns:inkscape="http://www.inkscape.org/namespaces/inkscape"
   xmlns:sodipodi="http://sodipodi.sourceforge.net/DTD/sodipodi-0.dtd"
   xmlns="http://www.w3.org/2000/svg"
   xmlns:svg="http://www.w3.org/2000/svg"><defs
   id="defs17" /><sodipodi:namedview
   pagecolor="#ffffff"
   bordercolor="#666666"
   borderopacity="1"
   objecttolerance="10"
   gridtolerance="10"
   guidetolerance="10"
   inkscape:pageopacity="0"
   inkscape:pageshadow="2"
   inkscape:window-width="1309"
   inkscape:window-height="456"
   id="namedview15"
   showgrid="false"
   fit-margin-top="0"
   fit-margin-left="0"
   fit-margin-right="0"
   fit-margin-bottom="0"
   inkscape:zoom="0.81753223"
   inkscape:cx="92.962696"
   inkscape:cy="96.632276"
   inkscape:window-x="0"
   inkscape:window-y="30"
   inkscape:window-maximized="0"
   inkscape:current-layer="Logo"
   inkscape:showpageshadow="2"
   inkscape:pagecheckerboard="0"
   inkscape:deskcolor="#d1d1d1" />

<g
   id="g12"
   transform="translate(-102.7,-55.8)">
	<path
   style="fill:#0082c6"
   d="m 385.6,213.7 c 34.9,-12.1 59.8,-39.9 59.8,-81.1 0,-10.4 -5.2,-35.5 -24.2,-51.6 -12.5,-10.7 -30.7,-23.3 -89.1,-24.7 -12.1,-0.3 -48.8,1 -48.8,1 v 2.1 c 10.4,7.9 21.5,21.1 26.9,36.2 5.6,-0.2 14,-0.6 22.4,-0.2 23.5,1.3 33.7,5.6 44.3,14 10.6,8.4 16.3,22.7 16.3,35.7 -0.1,17.8 -8.5,36.1 -34.1,46.6 -20.7,8.5 -45.9,10.3 -45.9,10.3 v 6.5 c 0,0 15,7.2 30.1,27 12.9,17.1 88,127.6 88,127.6 h 62 c -0.2,0 -100.4,-139.6 -107.7,-149.4 z"
   id="path4" />
	<g
   id="g10">
		<g
   id="g8">
			<path
   style="fill:#0082c6"
   d="m 249.2,198.2 c 23.8,-14.1 39.1,-34.8 39.1,-65.7 0,-33 -19.6,-76.7 -101.7,-76.7 -39.8,0 -83.9,1.5 -83.9,1.5 v 305.9 h 70.1 c 89.1,0 136.2,-32.9 136.2,-95 0,-37.1 -23.2,-61.5 -59.8,-70 z m -62.1,122.3 c 0,0 -29.1,0 -34.7,0 V 95.2 c 0.5,0 15.6,-0.2 25,-0.2 38.8,0 60.3,20.1 60.9,47.6 0.4,16.7 -4.6,32.8 -21.6,44.5 -13.9,9.6 -33.3,12.5 -33.3,12.5 v 7.2 c 0,0 26.9,4 40.5,10.4 25.4,11.9 33,30.3 33.1,54.1 0.3,37.7 -36.1,49.2 -69.9,49.2 z"
   id="path6" />
		</g>
	</g>
</g>
</svg>
