<?xml version="1.0" encoding="UTF-8"?>
<svg id="Layer_1" xmlns="http://www.w3.org/2000/svg" version="1.1" viewBox="0 0 335 365">
  <!-- Generator: Adobe Illustrator 30.3.0, SVG Export Plug-In . SVG Version: 2.1.3 Build 182)  -->
  <defs>
    <style>
      .st0 {
        fill: #fff;
      }
    </style>
  </defs>
  <path id="path10" class="st0" d="M335.01,354.38V25.49c0-10.26-6.12-19.55-15.66-23.51-3.06-1.26-6.36-1.92-9.72-1.92h-35.15c-7.56,0-14.64,3.78-18.77,10.08-5.88,8.58-58,86.44-79.24,118.17h0l-.3.48c-.42.6-.84,1.02-1.2,1.56-3.54,4.14-9.72,4.62-13.86,1.08-.36-.3-.72-.66-1.08-1.08l-1.26-1.68-.24-.42h0L79.36,10.08C75.22,3.78,68.14,0,60.58,0H22.79C10.2,0,0,10.2,0,22.79h0v242.21c0,14.52,11.64,26.39,26.15,26.75h14.88c1.02,0,2.1-.12,3.12-.24,4.02-.36,7.86-1.8,11.1-4.2,7.5-4.98,12-13.32,12-22.31V122.43h0c0-1.32,1.08-2.46,2.46-2.46h0c.84,0,1.62.42,2.1,1.08l88.24,125.79h0c2.76,4.68,8.82,6.18,13.44,3.36,1.02-.6,1.98-1.44,2.7-2.4l.66-1.02,88.6-126.15c.36-.36.9-.6,1.38-.6,1.08,0,2.04.78,2.28,1.8v196.57c0,2.58,1.02,5.1,2.82,6.9l1.74,1.38,45.47,36.29.6.48h0c1.62,1.02,3.48,1.56,5.34,1.56,5.1,0,9.36-3.96,9.78-9.06v-1.68"/>
</svg>