<?xml version="1.0" encoding="UTF-8"?>
<svg id="Layer_1" xmlns="http://www.w3.org/2000/svg" version="1.1" viewBox="0 0 1000 1000">
  <!-- Generator: Adobe Illustrator 30.3.0, SVG Export Plug-In . SVG Version: 2.1.3 Build 182)  -->
  <defs>
    <style>
      .st0 {
        fill: #fff;
      }
    </style>
  </defs>
  <path id="path10" class="st0" d="M528.11,529.05v-54.83c0-1.71-1.02-3.26-2.61-3.92-.51-.21-1.06-.32-1.62-.32h-5.86c-1.26,0-2.44.63-3.13,1.68-.98,1.43-9.67,14.41-13.21,19.7h0l-.05.08c-.07.1-.14.17-.2.26-.59.69-1.62.77-2.31.18-.06-.05-.12-.11-.18-.18l-.21-.28-.04-.07h0l-13.2-19.7c-.69-1.05-1.87-1.68-3.13-1.68h-6.3c-2.1,0-3.8,1.7-3.8,3.8h0v40.38c0,2.42,1.94,4.4,4.36,4.46h2.48c.17,0,.35-.02.52-.04.67-.06,1.31-.3,1.85-.7,1.25-.83,2-2.22,2-3.72v-23.77h0c0-.22.18-.41.41-.41,0,0,0,0,0,0,.14,0,.27.07.35.18l14.71,20.97h0c.46.78,1.47,1.03,2.24.56.17-.1.33-.24.45-.4l.11-.17,14.77-21.03c.06-.06.15-.1.23-.1.18,0,.34.13.38.3v32.77c0,.43.17.85.47,1.15l.29.23,7.58,6.05.1.08h0c.27.17.58.26.89.26.85,0,1.56-.66,1.63-1.51,0-.05,0-.09,0-.14,0-.05,0-.09,0-.14"/>
</svg>