<?xml version="1.0" encoding="UTF-8"?>
<svg id="Layer_1" xmlns="http://www.w3.org/2000/svg" version="1.1" viewBox="0 0 1000 1000">
  <!-- Generator: Adobe Illustrator 30.3.0, SVG Export Plug-In . SVG Version: 2.1.3 Build 182)  -->
  <path d="M565.03,542.05c-1.36.5-2.71.84-3.82.82-1.84-.03-5.28-3.17-5.87-4.91-1.16-22.05-.84-43.57-.2-65.68.16-5.43,1.47-9.94,4.94-13.68l-14.29-8.09c-5.47-3.1-10.73-5.67-16.35-8.38l-6.26,5.25-5.46,4.58-7.03,5.9c-.58.49-2.29,1.21-3,1.14-2.11-.22-2.65-5.06-7.83-9.56-5.36-4.66-12.61-7.34-19.19-8.32l-7.48,7.26c-9.64,7.45-19.99,12.89-32.32,14.6-.35.07-2.41,1.62-1.8,1.79.41.11,1.56.45,2.06.52l5.87.78-.16,24.86c-10.22,3.79-9.06,13.11-9.37,24.49,3.43-3.74,1.38-10.24,9.67-9.99l-.03,30.9c0,2.84-3.29,4.34-4.01,5.9l-8.06,17.52c11.5-2.32,23.29-.59,35.41-2.88l8.11-18.89c.63-10.99.3-21.59.33-32.62l10.68-.04.09,31.19-4.66,2.92c-.91.57-1.97,2.56-1.82,3.48,6.82.97,12.75,4.33,15.69,10.57,1,2.14,1.86,3.59,3.5,6,3.67-2,2.07-9.43,6.42-11.22l10.98-4.53c2.31-.95,3.52-2.71,3.52-5.37v-33.07s14.22,0,14.22,0l-.15,12.52c-.16,12.89-.33,26.74,6.77,35.39,1.14,1.38,3.33,2.94,5,4.17,2.14,1.57,6,.64,7.24-1.73l4.91-9.44c.55-1.06,2.86-2.04,4.07-1.69-.11-.82-.21-1.64-.31-2.46ZM464.87,540.9l-15.21.52c-2.77.1-2.86-3.99,6.15-8.34l9.66-4.65-1.04-4.53c-1.42-6.18-.68-12.13-.4-18.62l11.35.02v32.31c-2.96,1.63-6.83,3.17-10.51,3.29ZM475.82,491.27l-11.1.03.11-33.93c3.01-2.28,6.42-3.19,10.15-3.15.37,1.58.85,3.81.85,5.17v31.87ZM479.05,491.23l.08-34.79c3.92.37,9.92,3.45,9.98,7.71l.37,27.01-10.42.07ZM520.8,454.93l.1,36.36-11.92.03-.06-29.34c2.73-3.18,6.52-5.41,11.88-7.05ZM513.1,539.23c-1.49-.26-4.13-3.35-4.13-4.89l-.03-29,12.17-.06v32.08c-1.41,1.32-5.51,2.3-8,1.87ZM523.07,491.39l.12-36.6c6.08,1.04,14.2,6.78,14.22,9.96l.21,26.38-14.55.27Z"/>
</svg>