<?xml version="1.0" encoding="UTF-8"?>
<svg id="Layer_1" xmlns="http://www.w3.org/2000/svg" version="1.1" viewBox="0 0 335 305">
  <!-- Generator: Adobe Illustrator 30.3.0, SVG Export Plug-In . SVG Version: 2.1.3 Build 182)  -->
  <path d="M334.18,259.47c-3.5,1.29-6.97,2.16-9.82,2.11-4.73-.08-13.57-8.15-15.09-12.62-2.98-56.69-2.16-112.01-.51-168.85.41-13.96,3.78-25.55,12.7-35.17l-36.74-20.8c-14.06-7.97-27.58-14.58-42.03-21.54l-16.09,13.5-14.04,11.77-18.07,15.17c-1.49,1.26-5.89,3.11-7.71,2.93-5.42-.57-6.81-13.01-20.13-24.58C152.86,9.41,134.22,2.52,117.31,0l-19.23,18.66c-24.78,19.15-51.39,33.14-83.09,37.53-.9.18-6.2,4.16-4.63,4.6,1.05.28,4.01,1.16,5.3,1.34l15.09,2.01-.41,63.91c-26.27,9.74-23.29,33.7-24.09,62.96,8.82-9.61,3.55-26.32,24.86-25.68l-.08,79.44c0,7.3-8.46,11.16-10.31,15.17L0,304.97c29.56-5.96,59.87-1.52,91.03-7.4l20.85-48.56c1.62-28.25.77-55.5.85-83.86l27.46-.1.23,80.18-11.98,7.51c-2.34,1.47-5.06,6.58-4.68,8.95,17.53,2.49,32.78,11.13,40.34,27.17,2.57,5.5,4.78,9.23,9,15.42,9.43-5.14,5.32-24.24,16.5-28.84l28.23-11.65c5.94-2.44,9.05-6.97,9.05-13.81v-85.02h36.56l-.39,32.19c-.41,33.14-.85,68.74,17.4,90.98,2.93,3.55,8.56,7.56,12.85,10.72,5.5,4.04,15.42,1.65,18.61-4.45l12.62-24.27c1.41-2.73,7.35-5.24,10.46-4.34-.28-2.11-.54-4.22-.8-6.32h-.03ZM76.69,256.51l-39.1,1.34c-7.12.26-7.35-10.26,15.81-21.44l24.83-11.95-2.67-11.65c-3.65-15.89-1.75-31.18-1.03-47.87l29.18.05v83.06c-7.61,4.19-17.56,8.15-27.02,8.46h0ZM104.84,128.93l-28.54.08.28-87.23c7.74-5.86,16.5-8.2,26.09-8.1.95,4.06,2.19,9.79,2.19,13.29v81.93l-.03.03ZM113.14,128.82l.21-89.44c10.08.95,25.5,8.87,25.66,19.82l.95,69.44-26.79.18h-.03ZM220.47,35.5l.26,93.47-30.64.08-.15-75.43c7.02-8.18,16.76-13.91,30.54-18.12h0ZM200.68,252.22c-3.83-.67-10.62-8.61-10.62-12.57l-.08-74.55,31.29-.15v82.47c-3.62,3.39-14.17,5.91-20.57,4.81h-.03ZM226.31,129.23l.31-94.09c15.63,2.67,36.51,17.43,36.56,25.61l.54,67.82-37.41.69v-.03Z"/>
</svg>