<?xml version="1.0" encoding="UTF-8"?>
<svg id="Layer_1" xmlns="http://www.w3.org/2000/svg" version="1.1" viewBox="0 0 1000 1000">
  <!-- Generator: Adobe Illustrator 30.3.0, SVG Export Plug-In . SVG Version: 2.1.3 Build 182)  -->
  <defs>
    <style>
      .st0 {
        fill: #333;
        fill-rule: evenodd;
      }
    </style>
  </defs>
  <path class="st0" d="M412.53,522.59c-3.33-4.96-14,6.52-22.59,5.65-23.2,7.18-50.56,24.39-73.41,22.59-6.61-12.49-3.6-36.62,14.12-33.88-4.73-4.68-2.25-16.58-2.82-25.41,8.93.46,9.44-7.51,19.77-5.65-15.7-7.83-18.99-28.07-16.94-53.65,20.14-25.04,51.13-39.23,81.89-53.65-17.21-5.86-38.65,8.37-56.47,11.29,25.64-21.42,67.21-26.91,98.83-42.36,45.15-12.26,87.92-26.91,141.18-31.06,18.08,1.42,26.18,1.69,45.18,5.65,7.08,20.22,28.69,25.9,36.71,45.18.63,14.75-6.89,21.35-14.12,28.24,1.92,5.61,8.6,6.46,11.29,11.29.5,9.92-9.54,9.29-11.29,16.94,10.12.24,16.32,4.39,25.41,5.65,4.8-1.04,5.33,2.2,5.65,5.65,9.61-.19,19.7-.88,22.59,5.65-6.91,18.5-33.65,17.17-42.35,33.88-24.63.78-39.84,10.98-59.3,16.94,9.86,4.13,29.5-6.19,42.35-8.47,16.21-2.61,31.44-6.21,48-8.47,12.62,1.5,22.15,6.09,28.24,14.12-7.89,23.16-26.03,36.1-48,45.18,10.22,5.78,30.76,1.25,39.53,8.47-1.55,6.26,5.39,4.02,5.65,8.47-6.47,30.94-38.51,38.53-64.94,48-27.74,9.94-56.48,19.24-81.89,28.24-56.54,16.87-115.38,31.45-169.42,50.83-12.69.48-24.11,2.24-33.88,5.65h-31.06c-10.74-1.49-18.57-5.9-28.24-8.47-7.86-14.73-22.15-23.03-22.59-45.18-13.93-1.69-17.13,7.34-31.06,5.65-3.76-8.48-2.87-21.6-2.82-33.88,23.07-14.58,58.13-17.16,73.41-39.53,24.58-13.07,47.29-28.01,73.41-39.53ZM418.18,372.94c-.78-.78-4.28,1.36-2.82,2.82.78.78,4.28-1.36,2.82-2.82ZM421,516.94c-2.19.63-5.57.08-5.65,2.82,2.19-.63,5.57-.08,5.65-2.82ZM632.77,581.89c-.78-.78-4.28,1.36-2.82,2.82.78.78,4.28-1.36,2.82-2.82ZM615.83,584.71c-47.01,11.72-95.29,23.52-141.18,36.71-47.41,13.63-93.74,25.64-135.53,45.18,55.81,4.62,102.28-21.02,149.65-33.88,23.5-7.56,45.8-16.32,70.59-22.59,9.28-6.72,24.78-7.22,33.88-14.12,8.88,1.35,11.04-4.02,16.94-5.65,3.89.12,6.2-1.33,8.47-2.82,4.8.63,6.99-3.18,0-2.82h-2.82ZM310.88,624.24c1.07,17.76,8.7,28.95,19.77,36.71-6.7-10.24-3.21-30.67-8.47-42.35-.42,5.22-9.56,1.73-11.29,5.65Z"/>
</svg>