<?xml version="1.0" encoding="UTF-8"?>
<svg id="Layer_1" xmlns="http://www.w3.org/2000/svg" version="1.1" viewBox="0 0 1000 1000">
  <!-- Generator: Adobe Illustrator 30.3.0, SVG Export Plug-In . SVG Version: 2.1.3 Build 182)  -->
  <defs>
    <style>
      .st0 {
        fill: #333;
        fill-rule: evenodd;
      }
    </style>
  </defs>
  <path class="st0" d="M420.94,351.76c18.93-10.25,33.03-25.32,53.65-33.88,7.58-6.54,17.12-11.11,31.06-11.29,3.48-4.05,9.71-5.35,16.94-5.65,4.13-6.55,8.95,5.51,8.47-5.65,2.27,1.49,4.58,2.94,8.47,2.82,7.07.48,8.84-4.34,11.29-8.47,4.19,1.23-1.11,3.61,0,8.47,14.28-2.04,21.36,3.11,28.24,8.47-1.1,7.37-1.45,15.49-5.65,19.76,5.14,7.24,15.51-14.29,22.59-5.65-.53,7.94-9.21,7.73-11.29,14.12,10.49-1.74,17.74-6.73,28.24-8.47,3.21-.53,1.57-2.83,0-2.82,14.66-2.97,56.4-15.57,79.06-2.82,8.07,20.28-1.36,42.49-5.65,59.3.42,6.3,7.11-3.66,14.12,0-11.09,38.79-47.69,52.08-67.77,81.89,8.88-2.42,11.92-10.67,22.59-11.29,15.34-9.13,24.95-23.99,45.18-28.24,1.13,10.54-2.26,16.57-11.29,16.94,6.02,4.33,17.48,3.23,19.77,11.29,13.46-2.17,18.6,3.99,22.59,11.29-13.11,47.13-54.43,66.05-73.41,107.3-18.11,12.95-27.79,34.33-45.18,48-2.73,12.33-14.51,15.61-19.77,25.41-7.99,7.07-11.18,18.94-22.59,22.59,3.19-11.87,13.36-16.75,16.94-28.24,3.29-4.24,8.15-6.9,8.47-14.12,7.26-.21,4.04-13.16,11.29-5.65-4.7-5.61.26-3.59,0-11.29,2.29.54,2.82,2.83,5.65,2.82-6.15-6.48,7.51-9.08,11.29-14.12-.48-7.07,4.34-8.84,8.47-11.29-5.4-5.21-12.53,11.8-16.94,16.94-.79-4.46,3.54-10.1-5.65-16.94-24.75,20.43-45.66,44.7-62.12,73.41-10.82,11.77-16.58,28.6-28.24,39.53-9.61,12.98-15.4,29.78-31.06,36.71-2.43-23.14,11.39-30.03,19.76-42.35,6.96-13.75,14.76-26.65,25.41-36.71,15.57-25.84,34.33-48.5,53.65-70.59-39.8,27.97-70.78,64.75-121.42,81.88-9.24,6.76-19.93,12.07-28.24,19.77-14.84-6.99-10.91-23.67,0-31.06-4.51-9.61-7.69-20.54-11.29-31.06-1.38-8.91,5.09-9.97,2.82-19.77,10.53-17.7,20.9-35.58,33.88-50.83,5.7-8.42,14.3-13.93,19.76-22.59,3.75-7.92,21.35-12.6,14.12-22.59-2.33-5.74-9.89,6.78-14.12,8.47-5.93,3.48-11.01,7.81-16.94,11.29-9.96,7.92-22.28,13.48-31.06,22.59-22.05,2.42-29.39,19.55-56.47,16.94-2.51-6.9-6.58-12.24-5.65-22.59,1.73-18.03,20.73-18.79,16.94-42.35-13.03,10.5-22.59,24.47-39.53,31.06-2.19-2.51-3.04-6.38-2.82-11.29-4.07,1.58-6.89,4.4-8.47,8.47-6.71-.83,3.14-7.64,5.65-8.47,2.45-4.13,4.23-8.95,11.29-8.47,8.81-20.37,29.75-28.6,42.35-45.18,15.36-12.88,31.99-24.49,45.18-39.53-16.28,9.13-27.52,23.31-45.18,31.06-12.51,12.9-34.66,16.17-45.18,31.06-10.06-5.79-21.88,7.19-39.53,2.82-9.87-8.96-15.22-22.43-19.76-36.71-8.5,2.8-12.6,9.99-25.41,8.47,9.13-32.28,32.82-50,48-76.24,19.08-14.43,32.57-33.72,50.83-50.83,5.55-5.2,14.63-8.77,16.94-16.94,15.54-7.04,24.49-20.68,39.53-28.24,5.5-5.79,13.32-9.27,19.77-14.12,4.91-6.39,19.97-2.62,22.59-11.29,5.9,4.27-1.46,19.05-2.82,25.41.83,5.88,7.64-4.19,8.47,5.65-9.22,18.08-25.61,28.98-39.53,42.35-2.7,4.83-9.37,5.69-11.29,11.29ZM570.59,334.82c6.44-3.88,10.62,7.28,11.29,0-7.44-2.23,17.54-10.25,8.47-14.12-4.63,6.66-14.55,8.04-19.77,14.12ZM435.06,309.4c-15.35,13.14-26.77,32.59-42.36,42.36.9,11.37-19.7,15.9-14.12,22.59,8.68-12.97,22.39-20.91,31.06-33.88,10.38-1.85,14.06-10.41,19.76-16.94,6.95-6.23,18.48-7.87,19.77-19.77-4.96-4.42-10.08,2.19-14.12,5.65ZM680.71,340.46c.12-3-1.33-7.17-2.82-2.82-.12,3,1.33,7.17,2.82,2.82ZM573.41,337.64c-.78-.78-4.28,1.36-2.82,2.82.78.78,4.29-1.36,2.82-2.82ZM567.77,340.46c-.78-.78-4.28,1.36-2.82,2.82.78.78,4.28-1.36,2.82-2.82ZM313.64,408.23c-9.34,4.77-13.03,15.2-19.76,22.59-2.7,7.78-16.83,18.77-11.29,25.41,14.18-7.46,19.59-23.7,25.41-39.53,10.6-11.05,20.61-22.68,28.24-36.71,4.98-2.55,8.74-6.31,11.29-11.29,4.92.81,10.88-13.3,5.65-5.65-15.27,12.97-29.64,26.84-39.53,45.18ZM675.07,408.23c2.92-7.43,11.2-9.51,14.12-16.94-8.61.02-18.47,13.32-14.12,16.94ZM471.76,405.41c-7.71,8.59,8.59-7.71,0,0h0ZM669.42,413.88c-.78-.78-4.28,1.36-2.82,2.82.78.78,4.29-1.36,2.82-2.82ZM457.65,416.7c-.78-.78-4.28,1.36-2.82,2.82.78.78,4.29-1.36,2.82-2.82ZM452,422.35c-.78-.78-4.28,1.36-2.82,2.82.78.78,4.28-1.36,2.82-2.82ZM573.41,444.94c-.78-.78-4.28,1.36-2.82,2.82.78.78,4.29-1.36,2.82-2.82ZM559.3,456.23c-10.96,3.16-14.45,13.78-25.41,16.94-1.82,8.66-22.82,12.78-16.94,19.77,5.4-6.84,12.51-11.96,22.59-14.12,1.15-8.26,9.66-9.16,14.12-14.12,0-5.91,15.38-10.61,8.47-14.12,0,2.83-2.29,3.36-2.82,5.65ZM627.06,464.7c-7.71,8.59,8.59-7.71,0,0h0ZM477.41,588.94c.85-3.33,14.95-7.09,5.65-11.29.81,4.98-13.3,8.74-5.65,11.29Z"/>
</svg>