<?xml version="1.0" encoding="UTF-8"?>
<svg id="Layer_1" xmlns="http://www.w3.org/2000/svg" version="1.1" viewBox="0 0 1000 1000">
  <!-- Generator: Adobe Illustrator 30.3.0, SVG Export Plug-In . SVG Version: 2.1.3 Build 182)  -->
  <defs>
    <style>
      .st0 {
        fill: #333;
        fill-rule: evenodd;
      }
    </style>
  </defs>
  <path class="st0" d="M823.31,467.24c10-1.67,17.4-16.54,28.24-8.47-4.86,15.85-21.9,19.51-33.88,28.24,6.77,2.89,22.6-9.31,31.06-14.12,13.72-3.22,18.77-15.11,36.71-14.12-5.16,12.33-21.71,18.49-33.88,25.41-12.61,7.17-27.57,12.14-36.71,22.59-27.63,7.2-44.88,24.77-70.59,33.88-21.72,13.1-44.62,25.03-70.59,33.88,2.26-9.79-4.2-10.85-2.82-19.77.63-13.49,16.13-12.11,19.77-22.59-35.34,11.72-59.64,34.49-98.83,42.36-7.15-7.75-5.75-19.72-2.82-31.06-2.87-5.39-13.06,5.55-16.94,8.47-9.3,1.05-14.11,6.6-19.76,11.29-17.59,2.18-23.56,15.97-42.36,16.94-5.71-11.15-.52-23.76,5.65-31.06-29.73,15.45-55.47,34.89-84.71,50.83-9.77-.58-15.03-5.68-22.59-8.47-2.22-9.75,2.64-12.42,8.47-14.12-2.04-8.63,2.89-10.29,2.82-16.94-3.52-6.05-11.57,7.03-19.77,5.65-2,7.42-13.25,5.57-16.94,11.29-14.02,5.75-24.17,15.36-42.36,16.94-8.89-1.36-6.39,8.67-16.94,5.65-2.19-6.28-5.93-11.01-5.65-19.77-16.38,5.27-29.77,13.52-45.18,19.77,11.36-12.17,30.7-16.36,45.18-25.41-2.17-10.64,3.44-13.5,2.82-22.59,17.6-11.58,31.5-26.85,50.83-36.71-2.27-6.83-11.62,8.86-16.94,0,5.6,3.42-.71,9.74-2.82,2.82-.83,4.23-3.77,5.05-8.47,11.29-23.59,7.47-40.65,21.47-62.12,31.06-4.8,1.04-5.33-2.2-5.65-5.65-10.73,1.5-15.66,8.82-28.24,8.47v-11.29c-7.18,1.64-13.77,11.31-19.77,5.65,8.78-13.29-7.21-6.73-5.65-19.77-18.69,6.72-38.44,12.38-53.65,22.59-7.33-9.35,18.31-9.82,22.59-16.94,9.73-5.33,21.77-8.35,31.06-14.12-2.24-9.77,3.14-11.92,5.65-16.94-25.23,11.48-42.01,31.41-73.41,36.71-5.08-10.11-1.92-22.94,2.82-31.06-14.71,5.05-23.07,16.46-42.35,16.94-.02-9.43,11.34-7.48,14.12-14.12,8.43-.04,9.6-7.34,16.94-8.47,9.91-7.97,19.14-16.63,31.06-22.59,20.63-14.19,42.39-27.26,62.12-42.35,8.6-.13,10.98,5.96,16.94,8.47,2.42,9.01-4.44,8.73-5.65,14.12,28.39-13.97,56.34-28.37,87.53-39.53,9.79,2.45,19.28,5.19,19.77,16.94,21.83-6.92,56.65-29.93,76.24-5.65,34.38-11.74,59.16-33.08,101.65-36.71,6.85,3.5,13.15,7.56,16.94,14.12,20.89-5.46,38.35-14.36,59.3-19.77,12.86,1.26,20.98,7.26,31.06,11.29,2.37,6.1,7.31,9.63,5.65,19.77,23.42-5.05,51.11-27.38,73.41-8.47,5.25,9.92-2.15,9.29-5.65,16.94,11.72,2.4,18.88,9.36,25.41,16.94,9.64-.71,13.57-7.14,25.41-5.65-1.58,16.3-17.7,18.07-28.24,25.41,14.09,2.74,33.9-13.11,53.65-14.12,12.9-6.52,29.98-18.7,45.18-14.12,1.61,12.9-12.56,10.03-14.12,19.77ZM809.19,467.24c-.48-3.82,14.36-5.64,5.65-8.47.49,3.82-16.34,3.66-5.65,8.47ZM730.13,472.89c3.37-2.95.66-2.02-2.82,0-3.86,2.23-.47,2.88,2.82,0ZM735.77,478.54c-.78-.78-4.28,1.36-2.82,2.82.78.78,4.29-1.36,2.82-2.82ZM814.84,489.83c-.78-.78-4.28,1.36-2.82,2.82.78.78,4.29-1.36,2.82-2.82ZM809.19,492.66c-.78-.78-4.28,1.36-2.82,2.82.78.78,4.28-1.36,2.82-2.82ZM382.82,501.13c-.78-.78-4.29,1.36-2.82,2.82.78.78,4.28-1.36,2.82-2.82ZM371.52,506.77c-.78-.78-4.28,1.36-2.82,2.82.78.78,4.28-1.36,2.82-2.82ZM365.88,509.6c-.78-.78-4.29,1.36-2.82,2.82.78.78,4.28-1.36,2.82-2.82ZM267.05,526.54c-.78-.78-4.29,1.36-2.82,2.82.78.78,4.28-1.36,2.82-2.82ZM261.4,529.36c-.78-.78-4.28,1.36-2.82,2.82.78.78,4.28-1.36,2.82-2.82ZM696.24,529.36c-.78-.78-4.28,1.36-2.82,2.82.78.78,4.28-1.36,2.82-2.82ZM252.93,535.01c-7.71,8.59,8.59-7.71,0,0h0ZM247.28,537.83c-.78-.78-4.28,1.36-2.82,2.82.78.78,4.28-1.36,2.82-2.82ZM241.64,540.66c-.78-.78-4.29,1.36-2.82,2.82.78.78,4.29-1.36,2.82-2.82ZM235.99,543.48c-.78-.78-4.28,1.36-2.82,2.82.78.78,4.29-1.36,2.82-2.82Z"/>
</svg>