<?xml version="1.0" encoding="UTF-8"?>
<svg id="Layer_1" xmlns="http://www.w3.org/2000/svg" version="1.1" viewBox="0 0 1000 1000">
  <!-- Generator: Adobe Illustrator 30.3.0, SVG Export Plug-In . SVG Version: 2.1.3 Build 182)  -->
  <defs>
    <style>
      .st0 {
        fill: #333;
        fill-rule: evenodd;
      }
    </style>
  </defs>
  <path class="st0" d="M514.19,497.18c10.87,4.2,31.82-5.77,45.18-8.47,16.33-2.49,31.96-5.69,45.18-11.29h14.12c3.61-3.92,13.33-1.73,16.94-5.65,22.8,2.22,39.93-7.03,56.47-2.82-6.55,15.09-26.51,16.79-42.35,22.59,8.04,3.24,2.81,9.75,0,16.94,17.96-6.01,50.36-25.1,67.77-5.65-6.09,24.97-26.16,35.97-50.83,42.35.35,6.24,11.98,1.2,16.94,2.82,3.27,4.18,3.27,7.12,0,11.29,10.3-1.83,15.04,1.9,19.77,5.65-2.46,4.13-4.23,8.95-11.29,8.47,2.57,7.73,9.89-5.01,14.12,2.82-1.16,9.19-13.43,7.28-19.76,11.29-5.93.79,4.09,7.54-2.82,11.29-84.16,28.79-183.25,42.64-273.89,64.94,17.09,5.74,43.83-3.19,59.3-8.47,20.44-1.21,39.41-3.89,53.65-11.29,20.17,2.75,37.77-15.89,50.83-2.82-.63,14.43-18.46,11.66-31.06,14.12-28.66,10.88-65.34,13.72-93.18,25.41-12.49-5.39-28.84-6.93-48-5.65-3.27-4.18-3.27-7.12,0-11.29-17.59-2.81-29.75,6.14-42.36,0,4.32-16.38,28.73-12.68,42.36-19.77-19.05-5.87-44.84,17.89-64.94,11.29-14.94,5.34-35.88,18-50.83,14.12,4.08-12.86,20.59-13.3,33.88-16.94,5.3-5.38-1.67-5.11,0-14.12,16.19,1.13,19.34-10.78,22.59-22.59,16.55-2.28,28.85-8.8,42.35-14.12-12.41-2.93-33.16,10.09-48,14.12-17.52,5.07-32.04,13.14-50.83,16.94,2.33-7.98-3.98-7.32-2.82-14.12,21.47-9.59,42.81-19.31,67.77-25.41-.51-6.16,2.31-8.98,8.47-8.47-5.57-6.09-14.38-19.56-8.47-28.24-15.1,1.61-31.49,14.59-42.35,11.29,2.32-11.14,10.8-20.48,22.59-14.12-.08-2.75-3.46-2.19-5.65-2.82,8.06-7.45,24.4-13.72,36.71-8.47-10.45-7.4.65-5.39,8.47-2.82-.08-2.75-3.46-2.19-5.65-2.82,15.56-10.79,42.04-10.67,59.3-19.76,22.3-3.12,37-13.83,59.3-16.94-19.62-5.46-43.9,8.77-67.77,8.47-22.18,8.88-49.24,12.88-70.59,22.59-4.13-2.45-8.95-4.23-8.47-11.29-2.57-4.96-9.89-5.16-14.12-8.47,11.03-24.73,39.91-31.63,64.94-42.35,1.38-8.91-5.09-9.97-2.82-19.77,19.88-19.66,53.47-25.59,79.06-39.53,40.65-7.35,73.47-22.53,118.59-25.41-19.55-6.81-50.22-2.48-70.59-8.47-14.89-1.11-35.65,3.65-42.35-5.65,11.89-15.41,37.34-17.25,59.3-22.59,16.32-10.03,42.72-9.98,59.3-19.77,19.65.83,29.23-8.42,48-8.47,9.98,1.32,15.46,7.13,22.59,11.29,11.02.98,20.55-7.78,22.59,5.65-35.72,3.81-67.46,11.6-101.65,16.94,39,8.06,100.37-6.25,115.77,25.41-3.09,22.33-15.31,35.52-33.88,42.35,9.58,4.05,13.46,7.6,5.65,16.94,2.1,6.37,15.84,1.1,22.59,2.82-.98,8.08-1.69,9.82-11.29,14.12-6.45,2.89-17.87.03-22.59,5.65-17.91,1.86-30.73,8.8-48,11.29-30.81,8.72-60.95,18.11-93.18,25.41ZM333.48,550.83c7.23-2.18,16.01-2.82,19.77-8.47-7.23,2.18-16.01,2.82-19.77,8.47ZM381.48,477.41c2.87-1.21,14.77-6.08,2.82-5.65-17.92,14.09-50.95,13.05-56.47,39.53,11.15,3.62,6.83-8.23,14.12-8.47,14.27-2.67,23.3-10.58,39.53-11.29v-14.12ZM508.54,364.47c-3.32.44-8.02-.49-8.47,2.82,3.32-.44,8.01.49,8.47-2.82ZM598.9,463.29c-2.19.63-5.57.08-5.65,2.82,2.19-.63,5.57-.08,5.65-2.82ZM590.43,466.12c-3.32.44-8.01-.49-8.47,2.82,3.32-.44,8.01.49,8.47-2.82ZM579.13,468.94c-3.32.44-8.02-.49-8.47,2.82,3.32-.44,8.01.49,8.47-2.82ZM525.48,480.23c-2.97.15-2.22,3.62,2.82,2.82,12.75-4.2,30.11-3.78,39.53-11.29-16.36.58-26.14,7.74-42.35,8.47ZM675.14,474.59c-.78-.78-4.28,1.36-2.82,2.82.78.78,4.29-1.36,2.82-2.82ZM632.78,491.53c14.54-2.4,25.57-8.31,36.71-14.12-17.81-.87-26.28,7.6-36.71,14.12ZM502.89,488.71c4.95-2.58,14.09-.97,16.94-5.65-6.85-.93-22.86,3.14-16.94,5.65ZM491.6,488.71c-.78-.78-4.29,1.36-2.82,2.82.78.78,4.29-1.36,2.82-2.82ZM491.6,494.35c-2.19.63-5.57.08-5.65,2.82,2.19-.63,5.57-.08,5.65-2.82ZM511.37,500c-3.32.44-8.01-.49-8.47,2.82,3.32-.44,8.02.49,8.47-2.82ZM500.07,502.82c-2.19.63-5.57.08-5.65,2.82,2.19-.63,5.57-.08,5.65-2.82ZM375.83,533.88c-.78-.78-4.29,1.36-2.82,2.82.78.78,4.29-1.36,2.82-2.82ZM618.66,584.71c.48,3.82-14.36,5.64-5.65,8.47,14.58-8.95,37.96-9.09,50.83-19.77-18.54.28-26.18,11.47-45.18,11.29ZM389.95,576.24c-.78-.78-4.29,1.36-2.82,2.82.78.78,4.29-1.36,2.82-2.82ZM381.48,579.06c-.78-.78-4.29,1.36-2.82,2.82.78.78,4.29-1.36,2.82-2.82ZM373.01,581.89c-.78-.78-4.29,1.36-2.82,2.82.78.78,4.29-1.36,2.82-2.82ZM350.42,638.36c-.78-.78-4.28,1.36-2.82,2.82.78.78,4.29-1.36,2.82-2.82ZM409.72,638.36c-2.19.63-5.57.08-5.65,2.82,2.19-.63,5.57-.08,5.65-2.82ZM344.77,641.18c-.78-.78-4.29,1.36-2.82,2.82.78.78,4.29-1.36,2.82-2.82ZM327.83,646.83c-.78-.78-4.29,1.36-2.82,2.82.78.78,4.28-1.36,2.82-2.82Z"/>
</svg>