<?xml version="1.0" encoding="UTF-8"?>
<svg id="Layer_1" xmlns="http://www.w3.org/2000/svg" version="1.1" viewBox="0 0 2400 1600">
  <!-- Generator: Adobe Illustrator 30.3.0, SVG Export Plug-In . SVG Version: 2.1.3 Build 182)  -->
  <path d="M1309.75,1003.86c-2.74-.99-1.93,11.41-8.6,15.21-1.4.12-3.29-2.51-4.66-4.81-2.22,2.33-4.3,5.69-5.93,9.24-7.63,3.34-15.34,7.33-19.56,15.15-7.46,4.79-15.91,6.75-24.48,8.49l-7.41,6.59c-2.59,2.31-4.13,5.2-7.22,6.75-5.99,3-10.82,6.46-18.14,4.32l-1.66-11.87c-.1-.74-1.01-3.61-1.47-3.09l-2.1,2.36c-.8.9-2.1,2.37-2.97,2.73-1.05.43-2.46-2.21-3.47-4.04-6.29.28-3.06,7.98-10.87,10.04-3.56.94-11.02,6.72-13.43,10.57-2.61,4.17-14.88,9.81-22.2,9.12l-2.06-10.93c-.89-4.7-2.24-7.67-5.36-11.17-1.83-2.05-3.59-7.86-7.78-6.32-8.7,3.19-5.51,20.06-11.58,17.82-10.96-4.04-4.24,2.8-13.47,13.56l-6.04-4.33-5.35,7.89-11.71,6.6c-5.05,2.85-6.64,11.26-23.3,14.65-9.25,1.88-5.62-12.64-9.02-17.29l-9.88-13.48-4.46-43.23c-.93-9.02-7.75,3.1-19.4,1.79-.93-.1-1.81-2.64-1.81-3.7l-.02-12.97-6.88-5.02c-1.02-3.13-2.09-4.87-5.13-6.2l.23-10.5c.2-8.8-3.23.98-9.81,4.75-5.92,3.39-14.2,6.6-19.81,5.32-2.03,2.54-5.22,5.07-8.53,7.22-4.76,3.09-8.8,7.25-14.85,7.35-.2-5.64-1.55-9.91-5.08-13.31l-1.19,5.29c-.25,1.12-2.64.88-4.97.48l-2.49,4.66-1.21,2.2c-.32.58-2.21-1.61-2.09-1.6l-9.92,8.09c-4.38,3.57-8.02,7.74-14.8,7.33l-.17-8.19c-1.71-1.21-5.15-3.96-5.32-5.8l-2.13-22.91-5.41-65.41c-6.63,6.6-15.18,11.04-24.05,10.7l-2.25-15.86-4.69-1.26c-.88-.24-1.93,2.3-2.66,2.86l-8.45,6.47c-4.04,3.09-7.29,5.18-12.75,4.97l1.68-9.04c-4.33.81-7.95-3.72-6.97-8.27.75-3.48,1.66-7.29,1.33-11.21-3.66-42.8-4.19-84.85-1.53-127.85l4.13-66.78c.54-8.66,1.98-17.35,4.08-25.36,2.64-1.57,4.42-3.34,5.65-6.51,4.89,1.08,7.9-2.8,11.7-5.33,4.51-3,8.39-5.89,10.01-11.08,3.26-.17,6.42-1.52,7.34-4.64.26.01,1.5.27,1.45.6l-.39,2.45-.33,2.04c-.07.41,1.16.75,1.45.45l1.26-1.32,7.85-7.45,4.57,1.85c.92-3.44,1.64-6.44,3.85-8.36,2.47-2.15,4.75-2.6,8.73-2.05l4.92-8.76c3.61-3.13,4.32-6.15,4.02-11.49,2.4-.71,8.16-.8,9.89.94l6.61,6.62,6.72,4.65c-.54,3.09-1.35,7.14.15,10.84l20.8-87.26c1.17-4.9,4.78-4.97,7.19-8.24l7.98-10.83,3.77,2.86c.82.62,3.25-1.58,4.08-2.2l6.21-4.6c5.96-8.63,11.63-5.02,17.01-12.1,6.12-8.06,5.59-14.44,7.02-14.47l4.43-.09c3.17-.07,5.55,1.37,6.59,4.75l11.19,2.53c.71,2.64,4.19,5.97,6.41,5.34l7.67-9.37c3.86,2.43,4.89,2.17,7.6.33l6.59-4.49c3.66-4.31,7.62-7.66,13.78-8.18,1.92-2.53,3.85-6.16,4.96-9.08l2.48-6.54c1.39-3.66,4.34-4.69,8.34-4.19,3.24.41,4.23,1.98,6.49,3.98l12.12,10.68,3.47,20.65c.28,1.68,2.9,4.31,4.43,4.39,6.99.36,9.29-13.09,14.09-18.36s11.6.26,13.91,4.33l10.52,8.89c.31,9.54,1.5,17.88,5.93,25.98,3.56-1.11,9.19-2.55,11.73-.22l11.28,10.33c2.92,2.67,3.7,6.44,5.21,11.83l10.03-9.77c2.38-2.32,4.3-7.05,7.44-8.12,3.39-1.15,6.52-2.43,7.56-5.68,1.51-4.71,4.96-5.99,9.65-5.67,15.1,1.03,14.25-12.94,21.05-20.01,2.48-2.58,9.55-.89,11.81,1.23l12.65,11.86c4.15,3.89,3.49,21.16,6.1,20.29l4.14-1.39c4.19-1.41,7.79-3.26,9.77-7.29l6.61-13.5c3.42-.27,8.42-.03,10.83.87,5.26,8.19,14.46,9.44,14.82,18.2.25,6.01,1.35,11.31,3.53,16.99,6.33,16.49,1.09,26.33,9.39,21.52l6.71-3.89c3.36-4.55,6.62-8.02,12.72-8.56,2.76-.25,4.2-3.29,5.3-5.87l4.99-11.77c4.18-4.09,11.22-1.07,13.95,3.16,1.99,3.08,4.42,4.96,7.66,6.66,7.12,3.74,2.71,13.8,8.68,22.63,1.54-5.94,3.98-7.41,8.52-7.93,1.44-3.46,4.07-8.59,6.16-11.66l5.19,2.66c1.13.58,3.35-2.24,4.45-2.97,4.58-3.08,7.75-6.45,8.21-13.55,3.48-.31,8.91.08,12.34.41l8.49-9.28-.97-7.52c10.72-3.36,12.51,7.16,23.47,12.59l.62,10.54c.34,5.82,5.78,18.07,8.45,19.19.73.31,1.49-2.16,1.88-2.87l1.5-2.8c.32-.59,2.76.56,3.3.17l7.16-5.07,7.05-4.53c1.94-1.25,2.62-4.49,2.57-7.31,7.95.13,12.87,7.48,13.35,14.85l1.84,5.97c1.47,18.54,2.21,36.25,5.69,54.75,4.68,42.1,6.69,83.79,8.2,126.4l3.8,58.92,3.77,29.46,5.63,51.68-1.06,13.83-5.64.38-3.08,6.9-3.92-.95c-.87-.21-1.84,2.31-2.55,2.85l-9.64,7.3c-3.55,2.69-6.25,4.23-11.1,4.67l-1.96-8.27c-.47-1.97-1.56-4.37-2.67-6.16-4.25-3.35-3.52-8.56,0-12.27l-4.15-42.49-1.53-1.26.69,60.59c.02,1.79-.12,5.44-1.15,5.84l-5.4,2.12-2.32,4.27c-.58,1.06-3.12.99-4.5,1.06l-7.42,5.66-9.02,7.84c-1.11.96-3.1,3.84-4.48,3.74s-3.14-1.75-5.21-3.67c-4.6,5.7-2.72,14.4-9.83,17.53-1.48-2.2-2.71-3.97-4.28-5.37l-6.69,10.34c-10.22,2.54-11.83,10.29-22.65,16.32-7.85,4.37-8.09,10.7-11.69,7.54-1.21-1.06-2.52-2.07-3.43-2.11-3.74-.15-1.46,7.3-9.37,9.11-3,.69-9.87,6.15-12.43,9.47-4.58,5.92-16.07,11.61-24.02,9.52l-.27-12.58c-.03-1.49-1.52-4.31-3.05-4.71-3.64-.94-3.81,4.05-10.95,8.6-5.3,3.38-10.34,5.33-17.28,5.19-3.82-9.64,1.75-15.76-4.05-19.05-5.43-3.08-4.5-6.92-8.94-9.82-1.8-1.17-2.31,6.32-5.1,6.95-1.15.26-3.81-.41-4.95-.82l-2.49-.9Z"/>
</svg>