<?xml version="1.0" encoding="UTF-8"?>
<svg id="Layer_1" xmlns="http://www.w3.org/2000/svg" version="1.1" viewBox="0 0 1000 1000">
  <!-- Generator: Adobe Illustrator 30.3.0, SVG Export Plug-In . SVG Version: 2.1.3 Build 182)  -->
  <defs>
    <style>
      .st0 {
        fill: #333;
        fill-rule: evenodd;
      }
    </style>
  </defs>
  <path class="st0" d="M548,492.94c12,3.46,34.55-6.81,48-11.29,20.21-.5,30-11.42,50.83-11.29,27.46-9.41,59.35-19.15,87.53-19.77,9.79-3.49,26.91-11.17,36.71-5.65-11.28,16.49-31.21,14.14-48,19.77-44.89,15.04-90.68,47.91-138.36,64.94,10.4,6.78,26.69-17.45,39.53-8.47-5.6-6.51.71-3.14,2.82-8.47,4.1,1.25-.29,2.48,0,5.65,23.18-7.88,45.05-17.07,70.59-22.59,21.67-8.45,39.93-20.31,64.94-25.41-16.39,15.61-46.48,17.52-64.94,31.06-31.42,6.23-57.39,17.91-81.89,31.06-8.88-1.41-11.04,6.15-16.94,0-.38,4.16-6.4,9.98-16.94,11.29,1.86-3.79,6.04-5.26,11.29-5.65-4.83-8.23-10.28,6.4-19.77,2.82.08,2.75,3.46,2.19,5.65,2.82-2.07,5.03-5.13.41-8.47,0-3.89,2.83,1.21,4.65-5.65,8.47-3.28-.46-5.02.62-5.65,2.82-9.21-7.6-8.16,7.75-14.12,0-2.64,1.6-4.28,7.85-5.65,2.82-3.91,8.56-8-.71-11.29,8.47-6.6.93-11.67,3.39-16.94,5.65-10.73,4.33-18.75,11.37-31.06,14.12-20.26,10.8-39.92,22.2-62.12,31.06.34-8.13,12.04-4.9,11.29-14.12-6.26-1.56-4.02,5.39-8.47,5.65-1.49-4.35-2.95-.18-2.82,2.82-6.44-3.88-10.61,7.28-11.29,0-21.32,15.39-54.79,18.62-73.41,36.71-16.13-.18-28.02,6.03-48,8.47-.46-3.31-5.15-2.38-8.47-2.82-6.34-7.78-9.47-18.77-16.94-25.41-7.82-42.85.85-75.56,31.06-87.53-2.09-3.72-14.1,6.42-22.59,5.65,2.24-6.23,13.27-3.67,14.12-11.29-9.83,4.29-17.51,10.72-31.06,11.29-4.19-3.34-4.39-10.67-8.47-14.12,6.31-12.51,18.23-19.42,33.88-22.59,9.82-8.06,23.97-11.8,36.71-16.94-22.07-5.08-48.33,10-79.06,5.65-2.78-6.63-4.95-13.87-5.65-22.59,18.66-21.82,53.26-27.68,76.24-45.18,28.48-11.05,53.24-25.82,81.89-36.71,54.11-24.96,120.46-37.66,186.36-50.83h28.24c9.74,3.44,17.02,9.33,22.59,16.94,2.42,9.01-4.44,8.73-5.65,14.12.27,11.02,13.78,8.8,14.12,19.77-.18,12.99-8.02,18.33-11.29,28.24,7.78,5.34,24.99-11.16,36.71-2.82,0,17.83-17.51,24.97-31.06,33.88-7.13,4.69-11.53,6.52-19.77,11.29-11.65,6.74-32.35,17.81-48,25.41-5.06-.36-5.96,3.46-11.29,2.82ZM562.12,549.41c3.37-2.95.66-2.02-2.82,0-3.86,2.23-.47,2.88,2.82,0ZM627.06,439.29c-13.63,8.02-30.89,12.41-42.36,22.59,12.38,5.91,19.83-7.74,31.06-11.29,8.8-8.14,22.72-11.16,28.24-22.59-9.91-.5-9.29,9.54-16.94,11.29ZM254.34,476c-.78-.78-4.28,1.36-2.82,2.82.78.78,4.28-1.36,2.82-2.82ZM669.42,481.65c-.78-.78-4.29,1.36-2.82,2.82.78.78,4.28-1.36,2.82-2.82ZM584.71,512.71c-7.12,8.88-23.13,8.87-31.06,16.94-4.87.62-37.65,17.09-22.59,11.29,23.95-8.99,49.45-16.43,70.59-28.24,13.12-2.88,23.56-8.44,33.88-14.12,7.21-1.26,12.98-3.96,16.94-8.47,3.89.12,6.2-1.33,8.47-2.82,5.03-.41-1.22-5.03-2.82,0-27.32,5.63-46.95,18.94-73.42,25.41ZM322.11,487.29c-.78-.78-4.28,1.36-2.82,2.82.78.78,4.28-1.36,2.82-2.82ZM545.18,495.76c-.78-.78-4.28,1.36-2.82,2.82.78.78,4.29-1.36,2.82-2.82ZM299.52,526.82c-.78-.78-4.28,1.36-2.82,2.82.78.78,4.28-1.36,2.82-2.82ZM288.23,532.47c-.78-.78-4.28,1.36-2.82,2.82.78.78,4.28-1.36,2.82-2.82ZM581.89,532.47c-.78-.78-4.28,1.36-2.82,2.82.78.78,4.29-1.36,2.82-2.82ZM559.3,535.3c-.78-.78-4.28,1.36-2.82,2.82.78.78,4.28-1.36,2.82-2.82ZM553.65,538.12c-15,4.68-30.6,11.36-45.18,16.94-15.2,5.82-30.92,9.88-42.35,19.77,31.03-10.38,61.2-21.63,87.53-36.71ZM522.59,543.77c-.78-.78-4.28,1.36-2.82,2.82.78.78,4.28-1.36,2.82-2.82ZM463.29,574.83c-.78-.78-4.28,1.36-2.82,2.82.78.78,4.29-1.36,2.82-2.82ZM457.65,577.65c-.78-.78-4.28,1.36-2.82,2.82.78.78,4.28-1.36,2.82-2.82ZM460.47,588.94c-.78-.78-4.28,1.36-2.82,2.82.78.78,4.28-1.36,2.82-2.82ZM446.35,597.42c3.34-1.37,6.4-3.01,8.47-5.65-3.77-.44-15.57,4.43-8.47,5.65ZM440.7,597.42c-.78-.78-4.29,1.36-2.82,2.82.78.78,4.28-1.36,2.82-2.82ZM435.06,600.24c-.78-.78-4.28,1.36-2.82,2.82.78.78,4.28-1.36,2.82-2.82Z"/>
</svg>