<?xml version="1.0" encoding="UTF-8"?>
<svg id="Layer_1" xmlns="http://www.w3.org/2000/svg" version="1.1" viewBox="0 0 1000 1000">
  <!-- Generator: Adobe Illustrator 30.3.0, SVG Export Plug-In . SVG Version: 2.1.3 Build 182)  -->
  <defs>
    <style>
      .st0 {
        fill: #333;
        fill-rule: evenodd;
      }
    </style>
  </defs>
  <path class="st0" d="M702.17,421.1c19.23-9.95,38.32-20.04,56.47-31.06,20.46-8.71,37.1-21.25,59.3-28.24-13.65,17.41-33.8,28.33-50.83,42.35,4.34,5.07,16.55,2.27,16.94,11.29-6.24,27.64-29.21,38.56-45.18,56.47-21.28,12.6-37.1,30.67-59.3,42.35,1.83,2.87,6.49,2.92,5.65,8.47,1.53,10-10,6.94-8.47,16.94-25.75,16.74-52.52,32.64-79.06,48-26.73,15.47-53.45,31.97-81.89,45.18-22.73,19.62-53.53,31.18-76.24,50.83-30.04,11.37-46.75,36.07-81.89,42.35-4.88-6.41-6.81-15.78-5.65-28.24,34.08-21.46,67.05-44.01,101.65-64.94-4.27-8.54-12.39,2.34-19.77,0-3.68-14.97,8.18-14.41,5.65-28.24-.9-6-8.74,4.03-11.29,5.65-8.27-.74-8.67,6.38-16.94,5.65-8.14,5.98-15.73,12.51-31.06,11.29-5.78-7.39-9.84-16.51-8.47-31.06,14.11-12.24,26.87-25.84,45.18-33.88-22.87-2.14-53.58,12.28-70.59,25.41-8.78-4.39-13.62-12.74-14.12-25.41-48.35,24.13-97.1,47.85-146.83,70.59-5.48,1.12-4.12-12.86,2.82-8.47-.12-4.83,2.1-7.31,5.65-8.47,4.15-6.2,9.31-11.39,16.94-14.12,7.81-11.96,21.06-18.48,31.06-28.24-11.39-4.6-15.87-16.13-14.12-33.88,18.56-4.97,31.8-15.26,48-22.59,14.3-8.29,26.95-18.23,42.35-25.41,27.35-17.83,55.6-34.76,84.71-50.83-3.28-4-18.54,3.89-22.59,8.47-12.38-.15-16.78,7.69-25.41,11.29-15.67,8.8-33.91,15.03-48,25.41-34.4,14.54-65.21,32.68-96,50.83-7.63-2.54,5.96-6.82,8.47-8.47,11.33-10.32,27.04-16.26,39.53-25.41,19.13-10.05,34.6-23.76,56.47-31.06-8.5-6.56-13.22-16.9-14.12-31.06,6.08-7.1,15.38-10.97,19.77-19.76,25.23-11.59,47.33-28.58,70.59-42.36,23.46-13.9,46.87-25.63,70.59-39.53,50.07-23.34,98.25-48.58,155.3-64.94,16.59-.59,33.52-1.52,39.53,8.47-.36,16.58-10.21,23.67-16.94,33.88,8.7-2.11,3.44,9.73,14.12,5.65-.48-6.12,10.01-1.28,14.12-2.82,12.27,2.78,24.96,5.16,31.06,14.12.51,15.57-6.01,24.11-11.29,33.88,21.2,21.72,38.08-10.57,59.3-14.12-11.44,17.74-36.21,22.15-39.53,48,.9,6,8.74-4.03,11.29-5.65,5.88-1.65,9.13-5.93,14.12-8.47,7.96-6.16,17.69-10.55,25.41-16.94,16.92-11.31,35.12-21.35,50.83-33.88,8.18,1.58-4.33,4.4-2.82,8.47-5.8-1.43-6.02,3.82-8.47,5.65-16.57,12.38-35.31,20.71-48,36.71-19.17,8.13-33.81,20.78-48,33.88ZM549.69,333.57c-16.35,8.12-32.99,15.95-50.83,22.59-13.5,11.91-36.05,14.77-48,28.24,11.45-1.73,16.62-9.74,31.06-8.47,4.83-4.58,10.28-8.55,19.77-8.47,5.12-12.76,24.63-11.13,31.06-22.59,8.6.13,10.98-5.96,16.94-8.47,5.34.63,6.23-3.18,11.29-2.82.62-3.55,4.4-5.77-2.82-5.65-1.16,3.55-3.64,5.77-8.47,5.65ZM448.04,384.4c-.78-.78-4.28,1.36-2.82,2.82.78.78,4.28-1.36,2.82-2.82ZM696.52,423.93c-7.71,8.59,8.59-7.71,0,0h0ZM408.51,435.22c-.78-.78-4.28,1.36-2.82,2.82.78.78,4.29-1.36,2.82-2.82ZM634.4,502.99c-11.89,13.52-29.98,20.85-42.35,33.88-3-.12-7.17,1.33-2.82,2.82,17.86-10.38,34.27-22.2,50.83-33.88,8.31-5.81,15.47-12.77,25.41-16.94.27-7.26,11.02-4.04,11.29-11.29,5.51,1.34,14.44-7.6,8.47-8.47-17.92,10.31-33.02,23.45-50.83,33.88ZM247.56,567.93c-.78-.78-4.29,1.36-2.82,2.82.78.78,4.28-1.36,2.82-2.82Z"/>
</svg>