<?xml version="1.0" encoding="UTF-8"?>
<svg id="Layer_1" xmlns="http://www.w3.org/2000/svg" version="1.1" viewBox="0 0 1000 1000">
  <!-- Generator: Adobe Illustrator 30.3.0, SVG Export Plug-In . SVG Version: 2.1.3 Build 182)  -->
  <defs>
    <style>
      .st0 {
        fill: #333;
        fill-rule: evenodd;
      }
    </style>
  </defs>
  <path class="st0" d="M614.5,320.52c12.62-9.63,25.95-1.27,45.18-2.82,11.37,2.74,15.9,12.34,22.59,19.77-1.53,19.18-11.84,29.57-19.76,42.35,11.96-10.46,36.65-3.87,53.65-2.82.96,9.39,10.7,10.01,14.12,16.94-2.27,23.14-16.13,34.7-25.41,50.83,2.06,6.32,8.5-6.24,14.12-5.65,4.39-4.09,13.18-3.77,16.94-8.47,11.21,2.91,25.54,2.7,31.06,11.29-1.07,12.32-12.65,17.72-19.77,25.41-19.38,20.96-42.39,43.38-67.77,62.12-29.68,27.73-65.16,49.67-93.18,79.06-17.99,11.19-31.77,26.58-50.83,36.71-13.16,15.07-28.13,28.35-45.18,39.53-13.54,15.7-31.85,26.43-48,39.53-15.11,12.26-29.07,28.55-48,36.71,19.8-35.74,48.74-62.32,76.24-90.36-7.37-9.57-10.36-23.52-11.29-39.53-3.37-5.9-9.67,8.93-16.94,8.47-17.18,13.88-31.88,30.24-59.3,33.88-21.6-6.63-20.6-35.87-25.41-59.3-19.38,7.91-24.5,30.09-50.83,31.06-10.57-1.67-8.74-15.73-16.94-19.76.08-17.02-4.82-29.07-2.82-48,12.46-17.66,24.72-35.52,39.53-50.83-3.34-1.4-11.12,4.11-16.94,8.47-5.92,4.43-11.32,11.65-16.94,14.12-10.73,9.03-21.61,17.92-36.71,22.59-12.41,1.12-7.37-15.22-16.94-16.94-2.05-16.77-7.19-30.46-5.65-50.83,17.85-19.8,35.16-40.14,56.47-56.47,16.98-19.72,35.49-37.93,56.47-53.65-.83-6.72-7.64,3.14-8.47,5.65-5.26.39-9.44,1.86-11.29,5.65-5.34,5.95-16.25,6.34-19.76,14.12-16.96,6.57-25.8,21.26-45.18,25.41-12.63-2.43-11.31-18.81-14.12-31.06,7.43-16.64,24.26-24.99,36.71-36.71,12.05-11.35,21.97-25.19,36.71-33.88,9.96-13.57,22.93-24.13,36.71-33.88,11.3-12.23,22.19-24.87,39.53-31.06,8.82-1.29,9.03,6.03,8.47,14.12,40.92-19.95,70.5-64.16,135.53-50.83,1.15,11.08,16.41,8.06,14.12,22.59,10.33,1.86,10.83-6.11,19.77-5.65,12.36,2.7,25.21,4.91,39.53,5.65,2.69,7.66,10.15,10.55,14.12,16.94,1.99,19.87-7.69,28.08-14.12,39.53ZM391.43,300.75c2.19-2.85,16.98-7.05,8.47-11.29-1.39,3.89-15.57,16.74-8.47,11.29Z"/>
</svg>