<?xml version="1.0" encoding="UTF-8"?>
<svg id="Layer_1" xmlns="http://www.w3.org/2000/svg" version="1.1" viewBox="0 0 1000 1000">
  <!-- Generator: Adobe Illustrator 30.3.0, SVG Export Plug-In . SVG Version: 2.1.3 Build 182)  -->
  <defs>
    <style>
      .st0 {
        fill: #333;
        fill-rule: evenodd;
      }
    </style>
  </defs>
  <path class="st0" d="M581.88,579.64c31.53-18.36,55.87-43.89,96-53.65-2.02,23.39-22.41,28.41-36.71,39.53-18.24,17.52-41.66,29.87-59.3,48-11.61,6.27-19.45,16.32-31.06,22.59-9.22,7.72-16.71,17.17-31.06,19.77,20.18-24.06,43.79-44.68,70.59-62.12-4.67-5.39-14.33,8.1-19.77,11.29-5.34,5.95-16.25,6.34-19.77,14.12-14.4,8.19-28.48,16.7-39.53,28.24-17.9,5.63-26.16,20.9-42.35,28.24-6.73,4.57-12.45,10.14-19.77,14.12-7.4,4.46-9.72,13.98-19.77,8.47-9.04-21.24,16.64-27.21,25.41-39.53-2.85-6.25-9.72,6.95-19.77,2.82-3.23-8.88,4.43-6.86,5.65-11.29-21.31,5.04-28.27,24.44-50.83,28.24-2.42-9.01,4.44-8.73,5.65-14.12-12.11,5.49-19.3,28.75-36.71,19.77.27-11.02,11.41-11.18,16.94-16.94-19.98-12.96-35.27-30.61-42.35-56.47-6.28,6.54-11.01-.96-19.77,0,.85-7.44-3.91-9.26-11.29-8.47-6.45-18.97-19.72-31.11-22.59-53.65,3.83-.87,2.34-7.07,2.82-11.29,12.82-16,24.88-31.23,39.53-45.18,7.3-6.94,14.93-13.2,22.59-19.76,34.01-29.15,76.21-59.72,118.59-84.71-9.01-1.38-19.38,6.19-31.06,11.29-10.49,4.58-22.97,8.5-31.06,14.12-23.65,3.02-40.63,26.7-64.94,19.77,11.67-10.92,25.08-20.1,39.53-28.24-12.63-3.8-32.21,20.62-48,14.12.46-3.28-.62-5.02-2.82-5.65,1.91-15.03,22.95-10.93,31.06-19.76,13.6-2.4,22.9-9.09,33.88-14.12,23.06-8.94,42.96-21.04,67.77-28.24,42.52-21.48,87.42-40.59,141.18-50.83h22.59c1.86,3.79,6.04,5.26,11.29,5.65,1.63,23.28-24.66,18.64-28.24,36.71,7.37,3.49,25.33-6.59,39.53-5.65,9.27,1.09,12.45,8.26,19.77,11.29.71,19.53-3.49,34.15-11.29,45.18,10.17-.99,13.61-4.32,22.59,0,.44,7.03-4.44,8.74-5.65,14.12,11.48-6.04,24.25-1,33.88,2.82,4.43,43.02-28.7,48.48-42.35,73.41,22.29-5.95,31.94-24.53,59.3-25.41.17,16-13.4,23.73-22.59,31.06-9.66,7.7-22.54,11.36-28.24,22.59-22.14,11.75-37.36,30.41-59.3,42.35-1.58,4.07-4.4,6.89-8.47,8.47-6.19,6.05-15.68,8.78-19.77,16.94ZM612.94,319.86c.25-4.45,7.2-2.21,5.65-8.47h-8.47c.44,3.32-.49,8.01,2.82,8.47ZM381.41,398.93c-.78-.78-4.28,1.36-2.82,2.82.78.78,4.28-1.36,2.82-2.82ZM646.83,401.75c1.93,8.74-17.28,10.66-8.47,16.94,5.52-10.48,29.47-2.53,28.24-19.77-9.79-2.26-10.85,4.2-19.76,2.82ZM632.71,418.69c-.78-.78-4.28,1.36-2.82,2.82.78.78,4.29-1.36,2.82-2.82ZM644,492.11c-8.64,1.75-9.01,14.48-2.82,2.82,8.69,2.1,5.43-7.75,14.12-5.65-1.11-4.86,4.19-7.24,0-8.47-2.55,4.98-6.32,8.74-11.29,11.29ZM539.53,562.7c-7.71,8.59,8.59-7.71,0,0h0ZM567.77,565.52c-14.68,12.37,9.02-5.15,0,0h0ZM531.06,568.34c-14.68,12.37,9.02-5.15,0,0h0ZM553.65,576.82c-1.57,0-3.21,2.29,0,2.82-1.51-4.07,11-6.89,2.82-8.47-.16,1.72-.42,3.34-2.82,2.82,0-1.57-2.29-3.2-2.82,0,1.72.16,3.34.42,2.82,2.82ZM610.12,576.82c-7.71,8.59,8.59-7.71,0,0h0ZM514.12,605.05c-7.7-2.06-5.68,5.61-11.29,5.65-10.07,3.1-14.34,12.01-25.41,14.12-2.46,4.13-4.23,8.95-11.29,8.47-6.98,10.78-5.15,6.97,2.82,2.82,11.79-6.13,47.9-32.65,62.12-42.35,3.74-3.98,20.31-9.55,14.12-14.12-.16,1.72-.42,3.34-2.82,2.82,0-1.57-2.29-3.2-2.82,0,7.13,7.5-15.84-.39-5.65,8.47-7.7-.25-5.68,4.7-11.29,0-1.66,2.52-5.93,16.11-8.47,8.47,1.57,0,3.21-2.29,0-2.82-1.1,4.03-3.39,4.76,0,8.47ZM576.24,582.46c-.78-.78-4.29,1.36-2.82,2.82.78.78,4.29-1.36,2.82-2.82ZM601.65,582.46c-.78-.78-4.29,1.36-2.82,2.82.78.78,4.28-1.36,2.82-2.82ZM596,588.11c-.78-.78-4.28,1.36-2.82,2.82.78.78,4.28-1.36,2.82-2.82ZM457.64,641.76c-.78-.78-4.28,1.36-2.82,2.82.78.78,4.28-1.36,2.82-2.82ZM446.35,644.58c-.78-.78-4.28,1.36-2.82,2.82.78.78,4.28-1.36,2.82-2.82ZM412.47,653.05c-7.71,8.59,8.59-7.71,0,0h0ZM404,658.7c-14.68,12.37,9.02-5.15,0,0h0Z"/>
</svg>