<?xml version="1.0" encoding="UTF-8"?>
<svg id="Layer_1" xmlns="http://www.w3.org/2000/svg" version="1.1" viewBox="0 0 1000 1000">
  <!-- Generator: Adobe Illustrator 30.3.0, SVG Export Plug-In . SVG Version: 2.1.3 Build 182)  -->
  <defs>
    <style>
      .st0 {
        fill: #333;
        fill-rule: evenodd;
      }
    </style>
  </defs>
  <path class="st0" d="M883.99,442.33c1.16,13.4-17.42,7.05-22.59,14.12-10.42,1.82-21.57,2.9-28.24,8.47-12.89-1.59-17.59,5-31.06,2.82-9.14,3.1-16.28,8.2-25.41,11.29h-36.71c-12.73,7.98-30.81,10.61-50.83,11.29,17.33,5.26,40.23,4.95,59.3,8.47,2.53,5,11.46,3.6,8.47,14.12,10.05-.63,16.92,1.9,19.77,8.47,9.99-1.52,14.55,2.39,16.94,8.47-1.55,14.45-21.46,10.54-36.71,11.29-10.69,1.54-17.64,6.83-31.06,5.65,3.44,7.85,17.35,5.24,28.24,5.65,5.15,2.19-1.69,3.04-5.65,2.82h-14.12c-30.48-8.01-57.78,6.84-87.53,8.47,20.27,7.97,58.62-2.15,79.06,5.65.39,13.56-19.53,6.83-28.24,11.29-12.69.48-24.11,2.24-33.88,5.65-34.53,1.24-67.58,3.95-98.83,8.47-19.88-.83-44.66,3.24-56.47-5.65,4.74-9.38,23.12-5.12,33.88-8.47-8.54-6.52-29.12-1-42.35-2.82-13.19-1.87-35.58,5.46-36.71-8.47,12-4.94,31.78-2.1,48-2.82,5.37,5.56-22.65,1.68-31.06,2.82,32.03,7.54,69.34-4.06,107.3,0,27.64-6.24,53.96-13.81,84.71-16.94-41.14-2.54-96.02,5.62-141.18,8.47-80.33-2.49-171.37,5.72-242.83-5.65-22.6-1.87-53.75,4.81-67.77-5.65-2.85-8.49,6.29-5,11.29-5.65-8.52-6.54-18.49-11.63-25.41-19.77.57-10.73,11.87-10.72,11.29-22.59,17.96-7.46,36.39-14.43,59.3-16.94-17.56-12.15-43.49-3.95-67.77-2.82-34.02,1.58-69.48,2.19-93.18-8.47,13.06-13.29,39.87-12.84,64.94-14.12-10.32-5.68-29.86-2.14-39.53-8.47,6.62-10.32,32.33-1.55,42.35-8.47-7.25-5.93-24.09-2.26-19.77-19.76,36.28-1.62,75.57,1.74,118.59,0,10.04,4.39,1.7-9.59,8.47-8.47h36.71c8.33-2.02,17.48-3.22,22.59-8.47,135.52-.04,293-3.42,432.02,5.65,21.26,1.39,40.86,6.52,59.3,11.29,17.84,4.62,32.68,6.22,42.36,19.76ZM124.43,473.39c29.55,5.27,67.77,1.87,101.65,2.82,6.65.06,8.31-4.86,16.94-2.82,5.82-1.71,19.62,4.56,16.94-5.65-38.78-.29-98.41-8.46-135.53,5.65ZM691.98,507.27c-19.56,3.03-51.68-6.5-62.12,5.65,27.98-5.61,57.87,2.09,81.89-2.82-9.17,1.64-13.14-1.92-19.77-2.82ZM485.86,515.74h-25.41c10.41,6.53,32.9.98,48,2.82,6.8,1.16,6.14-5.16,14.12-2.82h67.77c5.75,1.64,22.25-1.92,8.47-2.82-29.19,1.87-65.87-3.75-90.36,2.82h-22.59ZM254.32,541.15h53.65c7.98,2.33,7.32-3.98,14.12-2.82h19.77c1.57,0,3.2-2.29,0-2.82h-31.06c-23.55,1.86-54.56-3.74-73.41,2.82,8.63-2.04,10.29,2.89,16.94,2.82ZM505.62,555.27h-59.3c.62,2.2,2.36,3.28,5.65,2.82h67.77c6.8,1.16,6.14-5.16,14.12-2.82h28.24c6.8,1.16,6.14-5.16,14.12-2.82h11.29c3.96.21,10.8-.63,5.65-2.82-30.32.74-59.95,2.17-87.53,5.65ZM635.51,572.21h-11.29c-3.32.44-8.02-.49-8.47,2.82,5.85-1.68,18.55,3.49,19.77-2.82ZM556.45,575.04c-2.19.63-5.57.08-5.65,2.82,2.19-.63,5.57-.08,5.65-2.82ZM604.45,575.04c-3.32.44-8.01-.49-8.47,2.82,3.32-.44,8.01.49,8.47-2.82Z"/>
</svg>