<svg xmlns="http://www.w3.org/2000/svg" viewBox="0 0 800 400">
  <defs>
    <linearGradient id="sky" x1="0" y1="0" x2="0" y2="1">
      <stop offset="0%" stop-color="#87CEEB"/>
      <stop offset="100%" stop-color="#E0F0FF"/>
    </linearGradient>
  </defs>
  <rect width="800" height="400" fill="url(#sky)"/>
  <rect y="280" width="800" height="120" fill="#8B9E6B"/>
  <rect x="200" y="260" width="400" height="140" rx="2" fill="#999"/>
  <line x1="400" y1="260" x2="400" y2="400" stroke="#fff" stroke-width="2" stroke-dasharray="12 8"/>
  <rect x="50" y="160" width="120" height="120" rx="4" fill="#D4A574"/>
  <rect x="65" y="185" width="30" height="35" rx="2" fill="#87CEEB" opacity="0.7"/>
  <rect x="110" y="185" width="30" height="35" rx="2" fill="#87CEEB" opacity="0.7"/>
  <polygon points="50,160 110,120 170,160" fill="#B85C3A"/>
  <rect x="630" y="180" width="100" height="100" rx="4" fill="#C4956A"/>
  <rect x="645" y="200" width="25" height="30" rx="2" fill="#87CEEB" opacity="0.7"/>
  <rect x="690" y="200" width="25" height="30" rx="2" fill="#87CEEB" opacity="0.7"/>
  <rect x="630" y="170" width="100" height="12" rx="2" fill="#8B6F4E"/>
  <circle cx="350" cy="310" r="18" fill="#dbb300" opacity="0.8"/>
  <text x="350" y="316" text-anchor="middle" font-size="14" font-weight="bold" fill="#333">30</text>
  <rect x="280" y="340" width="60" height="8" rx="4" fill="#E74C3C" opacity="0.6"/>
  <rect x="460" y="340" width="60" height="8" rx="4" fill="#E74C3C" opacity="0.6"/>
  <circle cx="150" cy="50" r="30" fill="#FFD700" opacity="0.8"/>
</svg>
